<svg width="81" height="84" viewBox="0 0 81 84" fill="none" xmlns="http://www.w3.org/2000/svg">
<path d="M40.5 83.8919C39.2764 83.8924 38.0743 83.5951 37.0145 83.0301L25.9231 76.9647C24.2678 76.1089 25.0744 75.8067 25.6218 75.6301C27.3823 75.1277 29.0679 74.4241 30.6395 73.5355C30.7711 73.4793 30.916 73.455 31.0605 73.465C31.2051 73.4749 31.3445 73.5188 31.4656 73.5924L39.9882 78.2694C40.1469 78.3469 40.3237 78.3875 40.5033 78.3875C40.6828 78.3875 40.8596 78.3469 41.0183 78.2694L74.2538 60.5488C74.4093 60.4628 74.538 60.3408 74.6271 60.195C74.7163 60.0492 74.7629 59.8845 74.7624 59.717V24.27C74.7625 24.0998 74.7151 23.9326 74.6249 23.7842C74.5347 23.6359 74.4047 23.5115 74.2473 23.4231L41.0119 5.71759C40.8551 5.63605 40.6783 5.59322 40.4984 5.59322C40.3186 5.59322 40.1417 5.63605 39.985 5.71759L6.76896 23.4291C6.61052 23.5157 6.47896 23.6386 6.38703 23.7859C6.29509 23.9332 6.24589 24.0999 6.24419 24.27V59.702C6.24465 59.8691 6.29318 60.0331 6.38482 60.1772C6.47646 60.3212 6.60792 60.4402 6.76572 60.5219L15.8812 65.3814C20.8211 67.6616 23.8467 64.9745 23.8467 62.2754V27.2922C23.8467 27.0541 23.9491 26.8258 24.1313 26.6574C24.3136 26.4891 24.5607 26.3945 24.8185 26.3945H29.0296C29.2873 26.3945 29.5345 26.4891 29.7168 26.6574C29.899 26.8258 30.0014 27.0541 30.0014 27.2922V62.2784C30.0014 68.3678 26.4122 71.8538 20.1603 71.8538C17.4632 71.8972 14.8084 71.2309 12.5058 69.9328L3.76935 65.3036C2.70876 64.7331 1.82872 63.9156 1.21711 62.9326C0.605496 61.9497 0.283696 60.8358 0.283837 59.702V24.27C0.280684 23.1345 0.601123 22.0182 1.21295 21.0334C1.82478 20.0485 2.70645 19.2297 3.76935 18.6594L37.008 0.932871C38.0787 0.391762 39.2796 0.108154 40.5 0.108154C41.7205 0.108154 42.9213 0.391762 43.992 0.932871L77.2275 18.6594C78.288 19.2288 79.1682 20.0452 79.7804 21.027C80.3926 22.0089 80.7153 23.1219 80.7162 24.255V59.702C80.7144 60.8358 80.3915 61.9493 79.7794 62.932C79.1674 63.9147 78.2876 64.7323 77.2275 65.3036L43.992 83.0301C42.9303 83.596 41.7258 83.8933 40.5 83.8919Z" fill="white"/>
<path d="M34.1949 47.8455C34.1949 47.6075 34.2973 47.3791 34.4796 47.2108C34.6618 47.0424 34.909 46.9478 35.1667 46.9478H39.4653C39.695 46.9485 39.917 47.0243 40.0919 47.1618C40.2669 47.2993 40.3834 47.4896 40.4209 47.6989C41.0688 51.7415 43.0124 53.7793 51.8007 53.7793C58.8008 53.7793 61.7843 52.3161 61.7843 48.8839C61.7843 46.9059 60.9388 45.4367 50.0579 44.4522C40.9619 43.6204 35.3384 41.7592 35.3384 35.0444C35.3384 28.8503 40.991 25.1548 50.4661 25.1548C61.1137 25.1548 66.3841 28.569 67.0514 35.8942C67.0616 36.0165 67.0445 36.1394 67.0013 36.2554C66.9581 36.3714 66.8896 36.4779 66.8 36.5685C66.7105 36.6591 66.6018 36.7317 66.4807 36.782C66.3596 36.8323 66.2286 36.8591 66.0958 36.8607H61.7681C61.551 36.8579 61.3411 36.788 61.172 36.6622C61.0029 36.5364 60.8843 36.3619 60.8351 36.1665C59.8018 31.9144 57.2719 30.5559 50.4693 30.5559C42.8245 30.5559 41.9369 33.0156 41.9369 34.8589C41.9369 37.0911 42.9865 37.7435 53.307 39.0032C63.5205 40.251 68.373 42.0165 68.373 48.6475C68.373 55.3383 62.3349 59.1685 51.8039 59.1685C37.2431 59.1864 34.1949 53.0193 34.1949 47.8455Z" fill="white"/>
</svg>
