<svg width="84" height="76" viewBox="0 0 84 76" fill="none" xmlns="http://www.w3.org/2000/svg">
<path d="M83.8919 38.0087C83.8919 32.3995 76.9412 27.0836 66.2846 23.7871C68.7439 12.8103 67.6509 4.07713 62.8349 1.28114C61.7249 0.625287 60.4269 0.314622 59.0095 0.314622V4.16342C59.7951 4.16342 60.427 4.31875 60.9564 4.61216C63.2789 5.95838 64.2865 11.0844 63.501 17.6774C63.3131 19.2997 63.0057 21.0084 62.63 22.7516C59.2827 21.9231 55.6281 21.2845 51.7856 20.8703C49.4801 17.6774 47.0892 14.7778 44.6812 12.2407C50.2486 7.01119 55.4744 4.14616 59.0266 4.14616V0.297363C54.3302 0.297363 48.1822 3.68017 41.9658 9.54829C35.7495 3.71468 29.6015 0.3664 24.9051 0.3664V4.2152C28.4402 4.2152 33.6831 7.06297 39.2505 12.258C36.8596 14.7951 34.4687 17.6774 32.1973 20.8703C28.3377 21.2845 24.6831 21.9231 21.3358 22.7688C20.943 21.0429 20.6527 19.3688 20.4478 17.7637C19.6451 11.1707 20.6356 6.04467 22.9411 4.6812C23.4535 4.37053 24.1195 4.23246 24.9051 4.23246V0.383659C23.4706 0.383659 22.1726 0.694324 21.0455 1.35017C16.2466 4.14616 15.1707 12.8621 17.647 23.8044C7.02461 27.1181 0.108093 32.4167 0.108093 38.0087C0.108093 43.6179 7.05876 48.9338 17.7153 52.2303C15.2561 63.2071 16.3491 71.9403 21.165 74.7362C22.2751 75.3921 23.573 75.7028 25.0076 75.7028C29.704 75.7028 35.852 72.32 42.0683 66.4518C48.2846 72.2854 54.4326 75.6337 59.129 75.6337C60.5636 75.6337 61.8615 75.3231 62.9886 74.6672C67.7875 71.8712 68.8634 63.1553 66.3871 52.213C76.9754 48.9165 83.8919 43.6007 83.8919 38.0087ZM61.6566 26.4968C61.0247 28.7232 60.2391 31.0187 59.351 33.3142C58.6509 31.9335 57.9165 30.5527 57.1139 29.172C56.3283 27.7913 55.4915 26.445 54.6547 25.1333C57.0797 25.4958 59.4194 25.9445 61.6566 26.4968ZM53.8349 44.8778C52.5028 47.2078 51.1366 49.417 49.7192 51.4709C47.1746 51.6952 44.5958 51.816 42 51.816C39.4212 51.816 36.8425 51.6952 34.315 51.4881C32.8975 49.4343 31.5142 47.2424 30.1821 44.9296C28.8842 42.6687 27.7059 40.3732 26.6299 38.0605C27.6888 35.7477 28.8842 33.435 30.1651 31.1741C31.4971 28.8441 32.8633 26.6349 34.2808 24.581C36.8254 24.3567 39.4042 24.2359 42 24.2359C44.5787 24.2359 47.1575 24.3567 49.685 24.5638C51.1025 26.6176 52.4858 28.8095 53.8178 31.1223C55.1158 33.3832 56.2941 35.6787 57.37 37.9914C56.2941 40.3042 55.1157 42.6169 53.8349 44.8778ZM59.351 42.6342C60.2732 44.9469 61.0588 47.2596 61.7078 49.5033C59.4706 50.0556 57.1139 50.5216 54.6717 50.884C55.5085 49.5551 56.3454 48.1916 57.1309 46.7936C57.9165 45.4129 58.6509 44.0149 59.351 42.6342ZM42.0341 61.0497C40.4459 59.3928 38.8577 57.5461 37.2865 55.5268C38.8235 55.5958 40.3947 55.6476 41.9829 55.6476C43.5882 55.6476 45.1765 55.6131 46.7305 55.5268C45.1935 57.5461 43.6053 59.3928 42.0341 61.0497ZM29.3282 50.884C26.9032 50.5216 24.5635 50.0729 22.3263 49.5206C22.9582 47.2941 23.7438 44.9987 24.6318 42.7032C25.332 44.0839 26.0664 45.4647 26.869 46.8454C27.6717 48.2261 28.4914 49.5723 29.3282 50.884ZM41.9488 14.9677C43.537 16.6246 45.1252 18.4713 46.6964 20.4906C45.1594 20.4216 43.5882 20.3698 42 20.3698C40.3947 20.3698 38.8064 20.4043 37.2524 20.4906C38.7894 18.4713 40.3776 16.6246 41.9488 14.9677ZM29.3112 25.1333C28.4744 26.4623 27.6375 27.8258 26.852 29.2238C26.0664 30.6045 25.332 31.9852 24.6318 33.366C23.7096 31.0532 22.9241 28.7405 22.2751 26.4968C24.5123 25.9618 26.869 25.4958 29.3112 25.1333ZM13.8557 46.7418C7.81019 44.1357 3.89937 40.7184 3.89937 38.0087C3.89937 35.299 7.81019 31.8644 13.8557 29.2755C15.3244 28.637 16.9297 28.0674 18.5863 27.5324C19.5597 30.9152 20.8406 34.436 22.4288 38.0432C20.8576 41.6331 19.5939 45.1367 18.6375 48.5023C16.9468 47.9672 15.3415 47.3804 13.8557 46.7418ZM23.0436 71.4052C20.721 70.059 19.7134 64.933 20.499 58.34C20.6869 56.7177 20.9943 55.009 21.37 53.2658C24.7172 54.0943 28.3719 54.7328 32.2144 55.1471C34.5199 58.34 36.9108 61.2396 39.3188 63.7767C33.7514 69.0062 28.5256 71.8712 24.9734 71.8712C24.2049 71.854 23.5559 71.6986 23.0436 71.4052ZM63.5522 58.2537C64.3549 64.8467 63.3643 69.9727 61.0588 71.3362C60.5465 71.6469 59.8805 71.7849 59.0949 71.7849C55.5598 71.7849 50.3169 68.9372 44.7495 63.7421C47.1404 61.205 49.5313 58.3228 51.8027 55.1298C55.6622 54.7156 59.3169 54.077 62.6641 53.2313C63.0569 54.9745 63.3643 56.6486 63.5522 58.2537ZM70.1272 46.7418C68.6585 47.3804 67.0531 47.95 65.3966 48.485C64.4232 45.1022 63.1423 41.5813 61.5541 37.9742C63.1252 34.3843 64.389 30.8806 65.3454 27.5151C67.0361 28.0501 68.6414 28.637 70.1442 29.2755C76.1898 31.8817 80.1006 35.299 80.1006 38.0087C80.0835 40.7184 76.1727 44.153 70.1272 46.7418Z" fill="white"/>
<path d="M41.9822 45.8957C46.2926 45.8957 49.7868 42.3644 49.7868 38.0083C49.7868 33.6522 46.2926 30.1208 41.9822 30.1208C37.6719 30.1208 34.1777 33.6522 34.1777 38.0083C34.1777 42.3644 37.6719 45.8957 41.9822 45.8957Z" fill="white"/>
</svg>
